<mxfile host="app.diagrams.net" agent="Mozilla/5.0 (Windows NT 10.0; Win64; x64) AppleWebKit/537.36 (KHTML, like Gecko) Chrome/135.0.0.0 Safari/537.36" version="26.2.14">
  <diagram name="第 1 页" id="4_5dgiqvtLyL4NcNK4jk">
    <mxGraphModel dx="1042" dy="562" grid="1" gridSize="10" guides="1" tooltips="1" connect="1" arrows="1" fold="1" page="0" pageScale="1" pageWidth="827" pageHeight="1169" math="0" shadow="0">
      <root>
        <mxCell id="0" />
        <mxCell id="1" parent="0" />
        <mxCell id="2TqE6U5tPp9jBAsenhNk-3" value="" style="edgeStyle=orthogonalEdgeStyle;rounded=0;orthogonalLoop=1;jettySize=auto;html=1;" edge="1" parent="1" source="2TqE6U5tPp9jBAsenhNk-1" target="2TqE6U5tPp9jBAsenhNk-2">
          <mxGeometry relative="1" as="geometry" />
        </mxCell>
        <mxCell id="2TqE6U5tPp9jBAsenhNk-1" value="开始" style="ellipse;whiteSpace=wrap;html=1;" vertex="1" parent="1">
          <mxGeometry x="236.25" y="20" width="90" height="40" as="geometry" />
        </mxCell>
        <mxCell id="2TqE6U5tPp9jBAsenhNk-9" value="" style="edgeStyle=orthogonalEdgeStyle;rounded=0;orthogonalLoop=1;jettySize=auto;html=1;" edge="1" parent="1" source="2TqE6U5tPp9jBAsenhNk-2" target="2TqE6U5tPp9jBAsenhNk-8">
          <mxGeometry relative="1" as="geometry" />
        </mxCell>
        <mxCell id="2TqE6U5tPp9jBAsenhNk-11" value="" style="edgeStyle=orthogonalEdgeStyle;rounded=0;orthogonalLoop=1;jettySize=auto;html=1;" edge="1" parent="1" source="2TqE6U5tPp9jBAsenhNk-2" target="2TqE6U5tPp9jBAsenhNk-10">
          <mxGeometry relative="1" as="geometry" />
        </mxCell>
        <mxCell id="2TqE6U5tPp9jBAsenhNk-2" value="消息输入" style="whiteSpace=wrap;html=1;" vertex="1" parent="1">
          <mxGeometry x="242.5" y="80" width="77.5" height="40" as="geometry" />
        </mxCell>
        <mxCell id="2TqE6U5tPp9jBAsenhNk-17" value="" style="edgeStyle=orthogonalEdgeStyle;rounded=0;orthogonalLoop=1;jettySize=auto;html=1;" edge="1" parent="1" source="2TqE6U5tPp9jBAsenhNk-4" target="2TqE6U5tPp9jBAsenhNk-16">
          <mxGeometry relative="1" as="geometry" />
        </mxCell>
        <mxCell id="2TqE6U5tPp9jBAsenhNk-4" value="发送文本调用大模型回答" style="whiteSpace=wrap;html=1;" vertex="1" parent="1">
          <mxGeometry x="242.5" y="140" width="77.5" height="40" as="geometry" />
        </mxCell>
        <mxCell id="2TqE6U5tPp9jBAsenhNk-12" style="edgeStyle=orthogonalEdgeStyle;rounded=0;orthogonalLoop=1;jettySize=auto;html=1;" edge="1" parent="1" source="2TqE6U5tPp9jBAsenhNk-8">
          <mxGeometry relative="1" as="geometry">
            <mxPoint x="240" y="160" as="targetPoint" />
            <Array as="points">
              <mxPoint x="160" y="160" />
            </Array>
          </mxGeometry>
        </mxCell>
        <mxCell id="2TqE6U5tPp9jBAsenhNk-8" value="文字输入" style="whiteSpace=wrap;html=1;" vertex="1" parent="1">
          <mxGeometry x="140" y="80" width="77.5" height="40" as="geometry" />
        </mxCell>
        <mxCell id="2TqE6U5tPp9jBAsenhNk-14" value="" style="edgeStyle=orthogonalEdgeStyle;rounded=0;orthogonalLoop=1;jettySize=auto;html=1;" edge="1" parent="1" source="2TqE6U5tPp9jBAsenhNk-10" target="2TqE6U5tPp9jBAsenhNk-13">
          <mxGeometry relative="1" as="geometry" />
        </mxCell>
        <mxCell id="2TqE6U5tPp9jBAsenhNk-10" value="语音输入" style="whiteSpace=wrap;html=1;" vertex="1" parent="1">
          <mxGeometry x="350" y="80" width="77.5" height="40" as="geometry" />
        </mxCell>
        <mxCell id="2TqE6U5tPp9jBAsenhNk-15" style="edgeStyle=orthogonalEdgeStyle;rounded=0;orthogonalLoop=1;jettySize=auto;html=1;entryX=1;entryY=0.5;entryDx=0;entryDy=0;" edge="1" parent="1" source="2TqE6U5tPp9jBAsenhNk-13" target="2TqE6U5tPp9jBAsenhNk-4">
          <mxGeometry relative="1" as="geometry" />
        </mxCell>
        <mxCell id="2TqE6U5tPp9jBAsenhNk-13" value="调用&lt;span style=&quot;font-family: &amp;quot;Times New Roman&amp;quot;; background-color: transparent; color: light-dark(rgb(0, 0, 0), rgb(255, 255, 255));&quot;&gt;&lt;font style=&quot;font-size: 12px;&quot;&gt;Web Speech API&lt;/font&gt;&lt;/span&gt;" style="whiteSpace=wrap;html=1;" vertex="1" parent="1">
          <mxGeometry x="350" y="140" width="77.5" height="40" as="geometry" />
        </mxCell>
        <mxCell id="2TqE6U5tPp9jBAsenhNk-19" value="" style="edgeStyle=orthogonalEdgeStyle;rounded=0;orthogonalLoop=1;jettySize=auto;html=1;" edge="1" parent="1" source="2TqE6U5tPp9jBAsenhNk-16" target="2TqE6U5tPp9jBAsenhNk-18">
          <mxGeometry relative="1" as="geometry" />
        </mxCell>
        <mxCell id="2TqE6U5tPp9jBAsenhNk-23" value="" style="edgeStyle=orthogonalEdgeStyle;rounded=0;orthogonalLoop=1;jettySize=auto;html=1;" edge="1" parent="1" source="2TqE6U5tPp9jBAsenhNk-16" target="2TqE6U5tPp9jBAsenhNk-22">
          <mxGeometry relative="1" as="geometry" />
        </mxCell>
        <mxCell id="2TqE6U5tPp9jBAsenhNk-16" value="大模型&lt;div&gt;生成回答&lt;/div&gt;" style="whiteSpace=wrap;html=1;" vertex="1" parent="1">
          <mxGeometry x="242.5" y="200" width="77.5" height="40" as="geometry" />
        </mxCell>
        <mxCell id="2TqE6U5tPp9jBAsenhNk-21" value="" style="edgeStyle=orthogonalEdgeStyle;rounded=0;orthogonalLoop=1;jettySize=auto;html=1;" edge="1" parent="1" source="2TqE6U5tPp9jBAsenhNk-18" target="2TqE6U5tPp9jBAsenhNk-20">
          <mxGeometry relative="1" as="geometry" />
        </mxCell>
        <mxCell id="2TqE6U5tPp9jBAsenhNk-18" value="调用&lt;span style=&quot;background-color: transparent; color: light-dark(rgb(0, 0, 0), rgb(255, 255, 255));&quot;&gt;Edge-TTS语音合成&lt;/span&gt;" style="whiteSpace=wrap;html=1;" vertex="1" parent="1">
          <mxGeometry x="242.5" y="260" width="77.5" height="40" as="geometry" />
        </mxCell>
        <mxCell id="2TqE6U5tPp9jBAsenhNk-20" value="结束" style="ellipse;whiteSpace=wrap;html=1;" vertex="1" parent="1">
          <mxGeometry x="236.25" y="320" width="90" height="40" as="geometry" />
        </mxCell>
        <mxCell id="2TqE6U5tPp9jBAsenhNk-22" value="消息存储实现多轮对话记忆" style="whiteSpace=wrap;html=1;" vertex="1" parent="1">
          <mxGeometry x="350" y="200" width="77.5" height="40" as="geometry" />
        </mxCell>
      </root>
    </mxGraphModel>
  </diagram>
</mxfile>
